<svg preserveAspectRatio="none" width="100%" height="100%" overflow="visible" style="display: block;" viewBox="0 0 48.2615 48.2615" fill="none" xmlns="http://www.w3.org/2000/svg">
<g id="Group">
<path id="Vector" d="M24.1308 47.7615C37.1817 47.7615 47.7615 37.1817 47.7615 24.1308C47.7615 11.0799 37.1817 0.5 24.1308 0.5C11.0799 0.5 0.5 11.0799 0.5 24.1308C0.5 37.1817 11.0799 47.7615 24.1308 47.7615Z" fill="var(--fill-0, #EFEFEF)" stroke="var(--stroke-0, #D3D3D3)" stroke-miterlimit="10"/>
<g id="Group_2">
<path id="Vector_2" d="M7.72157 14.7216H40.2139V34.2909H7.72157V14.7216Z" fill="var(--fill-0, #CECCE5)"/>
<path id="Vector_3" d="M35.6308 27.6309V30.6309H11.6308V27.6309H35.6308Z" fill="var(--fill-0, #DFF670)" stroke="var(--stroke-0, #302C69)"/>
<path id="Vector_4" d="M11.1308 24.3457H24.1277V25.4534H11.1308V24.3457Z" fill="var(--fill-0, #302C69)"/>
<path id="Vector_5" d="M40.2139 34.8816H7.72157C7.42618 34.8816 7.1308 34.6601 7.1308 34.2909V14.7216C7.1308 14.4262 7.35234 14.1309 7.72157 14.1309H40.2139C40.5093 14.1309 40.8046 14.3524 40.8046 14.7216V34.2909C40.8046 34.6601 40.5093 34.8816 40.2139 34.8816ZM8.31234 33.7739H39.6969V15.3124H8.31234V33.7739Z" fill="var(--fill-0, #302C69)"/>
<path id="Vector_6" d="M11.1308 21.2383H24.1277V22.346H11.1308V21.2383Z" fill="var(--fill-0, #302C69)"/>
<path id="Vector_7" d="M11.1308 18.1309H24.1277V19.2386H11.1308V18.1309Z" fill="var(--fill-0, #302C69)"/>
</g>
<g id="Group_3">
<path id="Vector_8" d="M27.7216 18.5416H35.1062V25.7211H27.7216V18.5416Z" fill="var(--fill-0, #DFF670)"/>
<path id="Vector_9" d="M35.1062 26.1309H27.7216C27.4262 26.1309 27.1308 25.977 27.1308 25.7206V18.5411C27.1308 18.336 27.3523 18.1309 27.7216 18.1309H35.1062C35.4016 18.1309 35.697 18.2847 35.697 18.5411V25.7206C35.6231 25.9257 35.4016 26.1309 35.1062 26.1309ZM28.2385 25.3616H34.5154V18.9514H28.2385V25.3616Z" fill="var(--fill-0, #302C69)"/>
</g>
</g>
</svg>
