<svg preserveAspectRatio="none" width="100%" height="100%" overflow="visible" style="display: block;" viewBox="0 0 48.2615 48.2615" fill="none" xmlns="http://www.w3.org/2000/svg">
<g id="Group">
<path id="Vector" d="M24.1308 47.7615C37.1817 47.7615 47.7615 37.1817 47.7615 24.1308C47.7615 11.0799 37.1817 0.5 24.1308 0.5C11.0799 0.5 0.5 11.0799 0.5 24.1308C0.5 37.1817 11.0799 47.7615 24.1308 47.7615Z" fill="var(--fill-0, #EFEFEF)" stroke="var(--stroke-0, #D3D3D3)" stroke-miterlimit="10"/>
<g id="Group_2">
<path id="Vector_2" d="M7.88462 14.3092H40.3769V33.8785H7.88462V14.3092Z" fill="var(--fill-0, #CECCE5)"/>
<path id="Vector_3" d="M40.3769 34.4692H7.88462C7.58923 34.4692 7.29385 34.2477 7.29385 33.8785V14.3092C7.29385 14.0138 7.51538 13.7185 7.88462 13.7185H40.3769C40.6723 13.7185 40.9677 13.94 40.9677 14.3092V33.8785C40.9677 34.2477 40.6723 34.4692 40.3769 34.4692ZM8.47538 33.3615H39.86V14.9H8.47538V33.3615Z" fill="var(--fill-0, #302C69)"/>
</g>
<g id="Group_3">
<path id="Vector_4" d="M12.1677 18.9615H19.5523V29.3H12.1677V18.9615Z" fill="var(--fill-0, #DFF670)"/>
<path id="Vector_5" d="M19.5523 29.8908H12.1677C11.8723 29.8908 11.5769 29.6692 11.5769 29.3V18.9615C11.5769 18.6662 11.7985 18.3708 12.1677 18.3708H19.5523C19.8477 18.3708 20.1431 18.5923 20.1431 18.9615V29.3C20.0692 29.5954 19.8477 29.8908 19.5523 29.8908ZM12.6846 28.7831H18.9615V19.5523H12.6846V28.7831Z" fill="var(--fill-0, #302C69)"/>
</g>
<path id="Vector_6" d="M28.5615 18.4446H36.0938V19.5523H28.5615V18.4446Z" fill="var(--fill-0, #302C69)"/>
<path id="Vector_7" d="M23.0969 23.6138H36.0938V24.7215H23.0969V23.6138Z" fill="var(--fill-0, #302C69)"/>
<path id="Vector_8" d="M23.0969 28.7831H36.0938V29.8908H23.0969V28.7831Z" fill="var(--fill-0, #302C69)"/>
</g>
</svg>
