<svg preserveAspectRatio="none" width="100%" height="100%" overflow="visible" style="display: block;" viewBox="0 0 48.2615 48.2615" fill="none" xmlns="http://www.w3.org/2000/svg">
<g id="Group">
<path id="Vector" d="M24.1308 47.7615C37.1817 47.7615 47.7615 37.1817 47.7615 24.1308C47.7615 11.0799 37.1817 0.5 24.1308 0.5C11.0799 0.5 0.5 11.0799 0.5 24.1308C0.5 37.1817 11.0799 47.7615 24.1308 47.7615Z" fill="var(--fill-0, #EFEFEF)" stroke="var(--stroke-0, #D3D3D3)" stroke-miterlimit="10"/>
<g id="Group_2">
<path id="Vector_2" d="M34.3954 9.58308C34.3954 8.62308 33.5831 7.88462 32.6969 7.88462H15.5646C14.6046 7.88462 13.8662 8.69692 13.8662 9.58308V32.4754H34.3954V9.58308Z" fill="var(--fill-0, white)"/>
<path id="Vector_3" d="M34.9862 33.0662H13.2754V9.58308C13.2754 8.32769 14.3092 7.29385 15.5646 7.29385H32.6969C33.9523 7.29385 34.9862 8.32769 34.9862 9.58308V33.0662ZM14.3831 31.9585H33.8046V9.58308C33.8046 8.91846 33.2877 8.40154 32.6231 8.40154H15.5646C14.9 8.40154 14.3831 8.91846 14.3831 9.58308V31.9585Z" fill="var(--fill-0, #302C69)"/>
</g>
<g id="Group_3">
<path id="Vector_4" d="M13.8662 32.5492V38.6785C13.8662 39.6385 14.6785 40.3769 15.5646 40.3769H32.6969C33.6569 40.3769 34.3954 39.5646 34.3954 38.6785V32.5492H13.8662Z" fill="var(--fill-0, #CECCE5)"/>
<path id="Vector_5" d="M32.6969 40.9677H15.5646C14.3092 40.9677 13.2754 39.9338 13.2754 38.6785V32.0323H34.9123V38.6785C34.9862 39.9338 33.9523 40.9677 32.6969 40.9677ZM14.3831 33.0662V38.6046C14.3831 39.2692 14.9 39.7862 15.5646 39.7862H32.6969C33.3615 39.7862 33.8785 39.2692 33.8785 38.6046V33.0662H14.3831Z" fill="var(--fill-0, #302C69)"/>
</g>
<path id="Vector_6" d="M24.1308 37.6446C24.8649 37.6446 25.46 37.0495 25.46 36.3154C25.46 35.5813 24.8649 34.9862 24.1308 34.9862C23.3967 34.9862 22.8015 35.5813 22.8015 36.3154C22.8015 37.0495 23.3967 37.6446 24.1308 37.6446Z" fill="var(--fill-0, #7A73A8)"/>
<path id="Vector_7" d="M21.5462 11.2815H26.7892V12.3892H21.5462V11.2815Z" fill="var(--fill-0, #7A73A8)"/>
<g id="Group_4">
<g id="Group_5">
<path id="Vector_8" d="M37.7628 15.4169H23.9535C22.8458 15.4169 21.9597 16.3769 21.9597 17.6323V24.1308C21.9597 25.3862 22.8458 26.3462 23.9535 26.3462H37.7628C38.8705 26.3462 39.7566 25.3862 39.7566 24.1308V17.6323C39.7566 16.4508 38.8705 15.4169 37.7628 15.4169Z" fill="var(--fill-0, #DFF670)"/>
<path id="Vector_9" d="M23.4366 26.8631C22.2551 26.5677 21.4428 25.46 21.4428 24.1308V17.6323C21.4428 16.0815 22.5505 14.9 23.9535 14.9H37.7628C39.1658 14.9 40.2735 16.1554 40.2735 17.6323V24.1308C40.2735 25.6815 39.1658 26.8631 37.7628 26.8631H23.4366ZM23.9535 16.0077C23.1412 16.0077 22.5505 16.7462 22.5505 17.6323V24.1308C22.5505 25.0169 23.2151 25.7554 23.9535 25.7554C24.2489 25.7554 27.8674 25.8292 28.0889 25.8292H37.7628C38.5751 25.8292 39.1658 25.0908 39.1658 24.2046V17.7062C39.1658 16.82 38.5012 16.0815 37.7628 16.0815H23.9535V16.0077Z" fill="var(--fill-0, #302C69)"/>
</g>
<path id="Vector_10" d="M25.0612 18.74H36.8766V19.8477H25.0612V18.74Z" fill="var(--fill-0, #302C69)"/>
<path id="Vector_11" d="M25.0612 21.6938H36.8766V22.8015H25.0612V21.6938Z" fill="var(--fill-0, #302C69)"/>
</g>
</g>
</svg>
