<svg preserveAspectRatio="none" width="100%" height="100%" overflow="visible" style="display: block;" viewBox="0 0 48.2615 48.2615" fill="none" xmlns="http://www.w3.org/2000/svg">
<g id="Group">
<path id="Vector" d="M24.1308 47.7615C37.1817 47.7615 47.7615 37.1817 47.7615 24.1308C47.7615 11.0799 37.1817 0.5 24.1308 0.5C11.0799 0.5 0.5 11.0799 0.5 24.1308C0.5 37.1817 11.0799 47.7615 24.1308 47.7615Z" fill="var(--fill-0, #EFEFEF)" stroke="var(--stroke-0, #D3D3D3)" stroke-miterlimit="10"/>
<g id="Group_2">
<path id="Vector_2" d="M24.1308 29.2262H18.74L9.36154 18.4446V37.8662H38.9V18.4446L29.5215 29.2262H24.1308Z" fill="var(--fill-0, #CECCE5)"/>
<path id="Vector_3" d="M38.9 38.3831H9.36154C9.06615 38.3831 8.77077 38.1615 8.77077 37.7923V18.4446C8.77077 18.2231 8.91846 18.0015 9.14 17.9277C9.36154 17.8538 9.58308 17.9277 9.73077 18.0754L18.9615 28.6354H29.2262L38.4569 18.0754C38.6046 17.9277 38.8262 17.8538 39.0477 17.9277C39.2692 18.0015 39.4169 18.2231 39.4169 18.4446V37.8662C39.4908 38.1615 39.1954 38.3831 38.9 38.3831ZM9.95231 37.2754H38.3831V19.9215L29.9646 29.5954C29.8908 29.7431 29.7431 29.8169 29.5215 29.8169H18.74C18.5923 29.8169 18.4446 29.7431 18.2969 29.5954L9.95231 19.9215V37.2754Z" fill="var(--fill-0, #302C69)"/>
</g>
<path id="Vector_4" d="M9.00708 37.4822L18.4003 28.8052L19.1535 29.6175L9.76031 38.2945L9.00708 37.4822Z" fill="var(--fill-0, #302C69)"/>
<path id="Vector_5" d="M29.1523 29.6397L29.9055 28.8274L39.284 37.5043L38.5308 38.3166L29.1523 29.6397Z" fill="var(--fill-0, #302C69)"/>
<g id="Group_3">
<path id="Vector_6" d="M38.9 18.4446L33.7308 24.3523V14.9L38.9 18.4446Z" fill="var(--fill-0, #EFEFEF)"/>
<path id="Vector_7" d="M33.7308 24.8692H33.5092C33.2877 24.7954 33.14 24.5738 33.14 24.3523V14.9C33.14 14.6785 33.2877 14.5308 33.4354 14.3831C33.5831 14.3092 33.8046 14.3092 34.0262 14.3831L39.1954 17.9277C39.3431 18.0015 39.4169 18.1492 39.4169 18.2969C39.4169 18.4446 39.4169 18.5923 39.2692 18.74L34.1 24.6477C34.0262 24.8692 33.8785 24.8692 33.7308 24.8692ZM34.3215 15.9338V22.8754L38.0877 18.5185L34.3215 15.9338Z" fill="var(--fill-0, #302C69)"/>
</g>
<g id="Group_4">
<path id="Vector_8" d="M29.4477 11.9462H18.8138L24.1308 8.32769L29.4477 11.9462Z" fill="var(--fill-0, #EFEFEF)"/>
<path id="Vector_9" d="M29.4477 12.5369H18.8138C18.5923 12.5369 18.3708 12.3892 18.2969 12.1677C18.2231 11.9462 18.2969 11.6508 18.5185 11.5769L23.8354 7.95846C24.0569 7.81077 24.2785 7.81077 24.4262 7.95846L29.7431 11.5769C29.9646 11.7246 30.0385 11.9462 29.9646 12.1677C29.8908 12.3892 29.6692 12.5369 29.4477 12.5369ZM20.5862 11.4292H27.6015L24.1308 8.99231L20.5862 11.4292Z" fill="var(--fill-0, #302C69)"/>
</g>
<g id="Group_5">
<path id="Vector_10" d="M14.5308 14.9V24.3523L9.36154 18.4446L14.5308 14.9Z" fill="var(--fill-0, #EFEFEF)"/>
<path id="Vector_11" d="M14.5308 24.8692C14.3831 24.8692 14.2354 24.7954 14.0877 24.6477L8.91846 18.74C8.84462 18.5923 8.77077 18.4446 8.77077 18.2969C8.77077 18.1492 8.84462 18.0015 8.99231 17.9277L14.1615 14.3831C14.3092 14.2354 14.5308 14.2354 14.7523 14.3831C14.9 14.4569 15.0477 14.6785 15.0477 14.9V24.3523C15.0477 24.5738 14.9 24.7954 14.6785 24.8692H14.5308ZM10.1738 18.5185L13.94 22.8754V15.9338L10.1738 18.5185Z" fill="var(--fill-0, #302C69)"/>
</g>
<g id="Group_6">
<path id="Vector_12" d="M33.7308 11.9462V24.3523L29.5215 29.2262H18.74L14.5308 24.3523V11.9462H33.7308Z" fill="var(--fill-0, #DFF670)"/>
<path id="Vector_13" d="M29.7431 29.7431H18.5185L14.0138 24.5738V11.4292H34.3215V24.5738L29.7431 29.7431ZM18.9615 28.6354H29.2262L33.14 24.1308V12.5369H15.0477V24.1308L18.9615 28.6354Z" fill="var(--fill-0, #302C69)"/>
</g>
<path id="Vector_14" d="M18.8138 16.9677H29.5215V18.0754H18.8138V16.9677Z" fill="var(--fill-0, #302C69)"/>
<path id="Vector_15" d="M18.8138 20.4385H29.5215V21.5462H18.8138V20.4385Z" fill="var(--fill-0, #302C69)"/>
<path id="Vector_16" d="M29.7431 29.7431H18.5185L8.91846 18.8138L9.80462 18.0754L18.9615 28.6354H29.3L38.4569 18.0754L39.3431 18.8138L29.7431 29.7431Z" fill="var(--fill-0, #302C69)"/>
</g>
</svg>
