<svg preserveAspectRatio="none" width="100%" height="100%" overflow="visible" style="display: block;" viewBox="0 0 48.2615 48.2615" fill="none" xmlns="http://www.w3.org/2000/svg">
<g id="Group">
<path id="Vector" d="M24.1308 47.7615C37.1817 47.7615 47.7615 37.1817 47.7615 24.1308C47.7615 11.0799 37.1817 0.5 24.1308 0.5C11.0799 0.5 0.5 11.0799 0.5 24.1308C0.5 37.1817 11.0799 47.7615 24.1308 47.7615Z" fill="var(--fill-0, #EFEFEF)" stroke="var(--stroke-0, #D3D3D3)" stroke-miterlimit="10"/>
<g id="Group_2">
<path id="Vector_2" d="M30.26 17.8538C36.0938 17.8538 40.82 21.5462 40.82 26.1246C40.82 28.7831 39.1954 31.1462 36.6846 32.6969V39.0477L32.18 34.3215C31.5154 34.3954 30.8508 34.4692 30.1862 34.4692C24.3523 34.4692 19.6262 30.7769 19.6262 26.1985" fill="var(--fill-0, #CECCE5)"/>
<path id="Vector_3" d="M36.6846 39.6385C36.5369 39.6385 36.3892 39.5646 36.3154 39.4908L32.0323 34.9862C31.4415 35.06 30.8508 35.1338 30.26 35.1338C24.1308 35.1338 19.1092 31.1462 19.1092 26.2723C19.1092 25.9769 19.3308 25.6815 19.7 25.6815C20.0692 25.6815 20.2908 25.9031 20.2908 26.2723C20.2908 30.5554 24.7954 34.0262 30.3338 34.0262C30.9246 34.0262 31.5892 33.9523 32.2538 33.8785C32.4015 33.8785 32.6231 33.8785 32.7708 34.0262L36.3154 37.7185V32.7708C36.3154 32.5492 36.3892 32.4015 36.6108 32.3277C39.0477 30.8508 40.4508 28.6354 40.4508 26.2723C40.4508 21.9892 35.9462 18.5185 30.4077 18.5185C30.1123 18.5185 29.8169 18.2969 29.8169 17.9277C29.8169 17.5585 30.0385 17.3369 30.4077 17.3369C36.5369 17.3369 41.5585 21.3246 41.5585 26.1985C41.5585 28.8569 40.0815 31.3677 37.4231 33.0662V39.0477C37.4231 39.2692 37.2754 39.4908 37.0538 39.5646C36.8323 39.5646 36.7585 39.6385 36.6846 39.6385Z" fill="var(--fill-0, #302C69)"/>
</g>
<g id="Group_3">
<path id="Vector_4" d="M28.5615 10.6908H10.7646C9.80462 10.6908 9.06615 11.3554 9.06615 12.1677V24.6477C9.06615 25.46 9.80462 26.1246 10.7646 26.1246H12.6108V31.8846L18.8877 26.1985H28.5615C29.5215 26.1985 30.26 25.5338 30.26 24.7215V12.1677C30.26 11.3554 29.4477 10.6908 28.5615 10.6908Z" fill="var(--fill-0, #DFF670)"/>
<path id="Vector_5" d="M12.6108 32.4015C12.5369 32.4015 12.4631 32.4015 12.3892 32.3277C12.1677 32.2538 12.0938 32.0323 12.0938 31.8108V26.7154H10.8385C9.58308 26.7154 8.62308 25.7554 8.62308 24.6477V12.1677C8.62308 11.06 9.65692 10.1 10.8385 10.1H28.6354C29.8908 10.1 30.8508 11.06 30.8508 12.1677V24.6477C30.8508 25.7554 29.8169 26.7154 28.6354 26.7154H19.1092L12.98 32.2538C12.8323 32.3277 12.6846 32.4015 12.6108 32.4015ZM10.7646 11.2077C10.1738 11.2077 9.65692 11.6508 9.65692 12.1677V24.6477C9.65692 25.1646 10.1738 25.6077 10.7646 25.6077H12.6108C12.9062 25.6077 13.2015 25.8292 13.2015 26.1985V30.6292L18.5923 25.7554C18.6662 25.6815 18.8138 25.6077 18.9615 25.6077H28.6354C29.2262 25.6077 29.7431 25.1646 29.7431 24.6477V12.1677C29.7431 11.6508 29.2262 11.2077 28.6354 11.2077H10.7646Z" fill="var(--fill-0, #302C69)"/>
</g>
<path id="Vector_6" d="M26.7154 16.2292H12.6108C12.3154 16.2292 12.02 16.0077 12.02 15.6385C12.02 15.2692 12.2415 15.0477 12.6108 15.0477H26.7154C27.0108 15.0477 27.3062 15.2692 27.3062 15.6385C27.3062 16.0077 27.0108 16.2292 26.7154 16.2292Z" fill="var(--fill-0, #302C69)"/>
<path id="Vector_7" d="M26.7154 21.62H12.6108C12.3154 21.62 12.02 21.3985 12.02 21.0292C12.02 20.66 12.2415 20.4385 12.6108 20.4385H26.7154C27.0108 20.4385 27.3062 20.66 27.3062 21.0292C27.3062 21.3985 27.0108 21.62 26.7154 21.62Z" fill="var(--fill-0, #302C69)"/>
<path id="Vector_8" d="M36.6846 26.7154H35.1338C34.8385 26.7154 34.5431 26.4938 34.5431 26.1246C34.5431 25.7554 34.7646 25.5338 35.1338 25.5338H36.6846C36.98 25.5338 37.2754 25.7554 37.2754 26.1246C37.2754 26.4938 37.0538 26.7154 36.6846 26.7154Z" fill="var(--fill-0, #302C69)"/>
<path id="Vector_9" d="M30.9985 26.7154H29.4477C29.1523 26.7154 28.8569 26.4938 28.8569 26.1246C28.8569 25.7554 29.0785 25.5338 29.4477 25.5338H30.9985C31.2938 25.5338 31.5892 25.7554 31.5892 26.1246C31.5892 26.4938 31.2938 26.7154 30.9985 26.7154Z" fill="var(--fill-0, #302C69)"/>
</g>
</svg>
