<svg preserveAspectRatio="none" width="100%" height="100%" overflow="visible" style="display: block;" viewBox="0 0 48.2615 48.2615" fill="none" xmlns="http://www.w3.org/2000/svg">
<g id="Group">
<path id="Vector" d="M24.1308 47.7615C37.1817 47.7615 47.7615 37.1817 47.7615 24.1308C47.7615 11.0799 37.1817 0.5 24.1308 0.5C11.0799 0.5 0.5 11.0799 0.5 24.1308C0.5 37.1817 11.0799 47.7615 24.1308 47.7615Z" fill="var(--fill-0, #EFEFEF)" stroke="var(--stroke-0, #D3D3D3)" stroke-miterlimit="10"/>
<g id="Group_2">
<path id="Vector_2" d="M18.3708 34.7646H29.8169V40.0815H18.3708V34.7646Z" fill="var(--fill-0, #302C69)"/>
<path id="Vector_3" d="M30.4077 40.5985H17.8538V34.1738H30.4077V40.5985ZM18.9615 39.4908H29.3V35.2815H18.9615V39.4908Z" fill="var(--fill-0, #302C69)"/>
</g>
<path id="Vector_4" d="M13.6446 39.4908H34.6169V40.5985H13.6446V39.4908Z" fill="var(--fill-0, #302C69)"/>
<g id="Group_3">
<path id="Vector_5" d="M14.1615 9.06615H34.1738V30.1123H14.1615V9.06615Z" fill="var(--fill-0, #DFF670)"/>
<path id="Vector_6" d="M34.6908 30.7031H13.5708V8.54923H34.6908V30.7031ZM14.6785 29.5954H33.5831V9.65692H14.6785V29.5954Z" fill="var(--fill-0, #302C69)"/>
</g>
<g id="Group_4">
<path id="Vector_7" d="M39.6385 13.8662V30.1123H34.1V12.3892H38.0877C38.9738 12.3892 39.6385 13.0538 39.6385 13.8662Z" fill="var(--fill-0, white)"/>
<path id="Vector_8" d="M40.2292 30.7031H33.5831V11.7985H38.1615C39.3431 11.7985 40.2292 12.7585 40.2292 13.8662V30.7031ZM34.6908 29.5954H39.1215V13.8662C39.1215 13.3492 38.6785 12.9062 38.1615 12.9062H34.6908V29.5954Z" fill="var(--fill-0, #302C69)"/>
</g>
<g id="Group_5">
<path id="Vector_9" d="M14.1615 12.3892V30.1862H8.62308V13.94C8.62308 13.1277 9.28769 12.3892 10.1738 12.3892H14.1615Z" fill="var(--fill-0, white)"/>
<path id="Vector_10" d="M14.6785 30.7031H8.03231V13.8662C8.03231 12.6846 8.99231 11.7985 10.1 11.7985H14.6046V30.7031H14.6785ZM9.21385 29.5954H13.6446V12.9062H10.2477C9.73077 12.9062 9.28769 13.3492 9.28769 13.8662V29.5954H9.21385Z" fill="var(--fill-0, #302C69)"/>
</g>
<g id="Group_6">
<path id="Vector_11" d="M8.62308 30.1123V33.2138C8.62308 34.0262 9.28769 34.7646 10.1738 34.7646H38.1615C38.9738 34.7646 39.7123 34.1 39.7123 33.2138V30.1123H8.62308Z" fill="var(--fill-0, #CECCE5)"/>
<path id="Vector_12" d="M38.0877 35.2815H10.1738C8.99231 35.2815 8.10615 34.3215 8.10615 33.2138V29.5954H40.2292V33.2138C40.1554 34.3954 39.2692 35.2815 38.0877 35.2815ZM9.21385 30.7031V33.2138C9.21385 33.7308 9.65692 34.1738 10.1738 34.1738H38.1615C38.6785 34.1738 39.1215 33.7308 39.1215 33.2138V30.7031H9.21385Z" fill="var(--fill-0, #302C69)"/>
</g>
<path id="Vector_13" d="M19.4046 13.6446H28.9308V14.7523H19.4046V13.6446Z" fill="var(--fill-0, #302C69)"/>
<path id="Vector_14" d="M19.4046 19.0354H28.9308V20.1431H19.4046V19.0354Z" fill="var(--fill-0, #302C69)"/>
<path id="Vector_15" d="M19.4046 24.4262H28.9308V25.5338H19.4046V24.4262Z" fill="var(--fill-0, #302C69)"/>
</g>
</svg>
